<?xml version="1.0" encoding="UTF-8" standalone="no"?>
<!DOCTYPE svg PUBLIC "-//W3C//DTD SVG 20010904//EN"
              "http://www.w3.org/TR/2001/REC-SVG-20010904/DTD/svg10.dtd">

<svg xmlns="http://www.w3.org/2000/svg"
     width="50.8001mm" height="55.0334mm"
     viewBox="0 0 600 650">
  <path id="选区"
        fill="none" stroke="black" stroke-width="1"
        d="M 96.00,283.00
           C 96.00,283.00 96.96,274.00 96.96,274.00
             96.96,274.00 96.96,258.00 96.96,258.00
             96.96,258.00 99.72,228.00 99.72,228.00
             104.60,190.61 114.99,157.58 137.89,127.00
             164.60,91.34 206.77,63.99 250.00,53.13
             262.19,50.07 275.39,47.02 288.00,47.00
             288.00,47.00 318.00,47.00 318.00,47.00
             342.92,47.04 367.99,55.75 390.00,66.75
             415.90,79.70 432.81,90.41 452.91,112.00
             464.50,124.44 472.70,137.90 480.25,153.00
             489.08,170.66 495.53,185.66 500.12,205.00
             509.45,244.30 508.00,299.02 508.00,340.00
             520.77,342.40 531.61,352.49 531.98,366.00
             532.07,369.13 532.07,372.00 531.04,375.00
             529.97,378.08 527.87,380.58 528.61,384.00
             529.87,389.85 535.85,392.70 536.00,404.00
             536.04,407.14 536.19,412.09 535.37,415.00
             531.59,428.28 519.85,430.00 508.00,430.00
             508.00,445.65 507.47,454.18 510.46,470.00
             510.46,470.00 518.13,501.00 518.13,501.00
             522.97,520.39 529.97,555.53 530.00,575.00
             530.02,588.20 532.23,602.75 516.00,607.37
             513.40,608.10 510.67,608.00 508.00,608.00
             508.00,608.00 93.00,608.00 93.00,608.00
             76.01,607.97 67.76,596.42 71.53,580.00
             71.53,580.00 88.28,536.00 88.28,536.00
             95.82,510.97 97.55,490.49 101.13,465.00
             101.13,465.00 105.39,431.00 105.39,431.00
             105.27,428.46 102.85,420.92 102.00,418.00
             96.22,420.17 95.11,420.08 89.00,420.00
             65.02,419.69 64.13,393.22 73.00,377.00
             58.21,372.78 54.82,363.15 55.00,349.00
             55.03,346.84 55.03,345.12 55.63,343.00
             57.27,337.23 60.96,332.28 65.00,328.00
             51.49,323.28 52.41,299.01 61.21,290.21
             70.17,281.25 84.45,283.00 96.00,283.00 Z" />
</svg>
